<svg xmlns="http://www.w3.org/2000/svg" id="canvas" viewBox="726.221 260.346 347.016 308.332" transform="matrix(1, 0, 0, 1, 0, 0)"><path d="M 731.04,467.27 C 732.19 467.31, 733.42 467.45, 735.38 465.60 C 737.33 463.76, 737.95 462.44, 740.82 458.03 C 743.68 453.62, 745.63 450.94, 749.69 443.55 C 753.76 436.17, 756.33 431.33, 761.15 421.10 C 765.98 410.87, 768.73 404.59, 773.82 392.40 C 778.91 380.21, 781.79 373.02, 786.60 360.15 C 791.41 347.28, 793.83 340.19, 797.88 328.04 C 801.92 315.90, 803.72 309.58, 806.82 299.42 C 809.92 289.27, 811.44 284.08, 813.38 277.29 C 815.32 270.50, 816.42 267.83, 816.54 265.49 C 816.65 263.14, 814.68 262.66, 813.94 265.57 C 813.21 268.49, 813.33 271.51, 812.85 280.06 C 812.37 288.60, 812.11 294.95, 811.54 308.29 C 810.97 321.63, 810.57 329.90, 810.00 346.74 C 809.42 363.58, 809.09 373.62, 808.65 392.50 C 808.22 411.38, 807.90 422.22, 807.82 441.14 C 807.74 460.06, 807.85 470.13, 808.25 487.09 C 808.66 504.05, 809.16 512.79, 809.84 525.96 C 810.53 539.13, 811.06 545.13, 811.66 552.93 C 812.25 560.73, 812.62 563.66, 812.81 564.98 C 813.00 566.29, 813.49 563.68, 812.61 559.52 C 811.73 555.35, 810.27 550.49, 808.39 544.15 C 806.51 537.82, 804.92 530.89, 803.20 527.85 C 801.48 524.80, 799.44 525.45, 799.79 528.93 C 800.13 532.40, 802.92 538.92, 804.92 545.22 C 806.93 551.52, 807.99 556.45, 809.80 560.44 C 811.61 564.44, 813.26 566.73, 813.99 565.20 C 814.71 563.67, 813.99 560.66, 813.43 552.80 C 812.87 544.94, 811.99 539.03, 811.18 525.88 C 810.37 512.74, 809.83 504.01, 809.37 487.06 C 808.91 470.11, 808.80 460.06, 808.88 441.15 C 808.96 422.24, 809.28 411.39, 809.77 392.52 C 810.25 373.65, 810.59 363.62, 811.31 346.79 C 812.02 329.97, 812.55 321.70, 813.34 308.38 C 814.14 295.07, 814.59 288.74, 815.29 280.23 C 816.00 271.72, 817.08 268.90, 816.87 265.83 C 816.65 262.75, 815.36 262.67, 814.22 264.84 C 813.08 267.01, 812.96 269.86, 811.15 276.68 C 809.34 283.50, 808.11 288.76, 805.17 298.93 C 802.23 309.11, 800.44 315.43, 796.44 327.57 C 792.45 339.71, 790.04 346.79, 785.21 359.63 C 780.39 372.47, 777.49 379.65, 772.33 391.77 C 767.16 403.89, 764.37 410.15, 759.38 420.24 C 754.39 430.33, 751.73 435.11, 747.38 442.21 C 743.04 449.32, 740.78 451.77, 737.64 455.76 C 734.51 459.74, 733.31 460.22, 731.71 462.15 C 730.10 464.08, 729.75 464.39, 729.61 465.41 C 729.48 466.44, 729.88 467.23, 731.04 467.27" style="stroke:#03a9f4; fill:#03a9f4;"/><path d="M 729.66,441.64 C 730.47 442.57, 731.02 443.52, 734.32 444.14 C 737.63 444.77, 739.84 444.73, 746.18 444.76 C 752.53 444.78, 756.96 444.85, 766.04 444.26 C 775.12 443.66, 780.95 443.23, 791.58 441.79 C 802.21 440.34, 808.60 439.26, 819.19 437.03 C 829.77 434.81, 835.21 433.21, 844.51 430.66 C 853.81 428.11, 861.55 425.90, 865.67 424.28 C 869.80 422.65, 869.48 421.61, 865.15 422.54 C 860.82 423.46, 853.30 426.38, 844.03 428.91 C 834.76 431.44, 829.35 433.01, 818.80 435.17 C 808.26 437.34, 801.89 438.42, 791.31 439.73 C 780.73 441.03, 774.91 441.38, 765.91 441.69 C 756.91 442.01, 752.48 441.70, 746.30 441.30 C 740.12 440.90, 738.20 440.07, 735.00 439.71 C 731.79 439.34, 731.36 439.09, 730.29 439.48 C 729.22 439.86, 728.85 440.71, 729.66 441.64" style="stroke:#03a9f4; fill:#03a9f4;"/><path d="M 987.44,317.76 C 986.98 316.57, 986.24 315.15, 983.84 314.04 C 981.45 312.93, 979.78 312.49, 975.45 312.21 C 971.11 311.93, 968.22 311.31, 962.15 312.63 C 956.08 313.95, 952.47 315.10, 945.08 318.83 C 937.70 322.56, 933.28 324.84, 925.23 331.28 C 917.19 337.72, 912.33 341.81, 904.85 351.02 C 897.38 360.22, 893.39 366.10, 887.86 377.31 C 882.34 388.51, 879.91 395.18, 877.21 407.03 C 874.51 418.89, 873.76 425.68, 874.36 436.57 C 874.96 447.46, 876.14 453.30, 880.22 461.49 C 884.31 469.69, 887.84 473.27, 894.81 477.56 C 901.77 481.84, 906.56 482.98, 915.06 482.94 C 923.56 482.89, 928.60 481.41, 937.31 477.33 C 946.02 473.24, 951.08 469.53, 958.60 462.51 C 966.11 455.50, 969.96 450.55, 974.88 442.27 C 979.81 433.99, 981.68 428.83, 983.23 421.11 C 984.78 413.38, 984.59 409.25, 982.63 403.66 C 980.66 398.08, 978.18 395.70, 973.40 393.20 C 968.63 390.70, 964.69 390.78, 958.75 391.15 C 952.81 391.53, 949.25 392.99, 943.71 395.08 C 938.18 397.17, 934.99 398.87, 931.08 401.62 C 927.16 404.36, 925.21 406.06, 924.13 408.79 C 923.06 411.51, 923.49 414.06, 925.69 415.24 C 927.89 416.41, 930.15 416.17, 935.13 414.67 C 940.12 413.17, 943.55 411.33, 950.61 407.73 C 957.66 404.14, 962.39 401.59, 970.42 396.70 C 978.45 391.82, 983.65 388.20, 990.76 383.29 C 997.88 378.39, 1001.62 375.19, 1006.00 372.18 C 1010.38 369.17, 1011.48 368.23, 1012.65 368.25 C 1013.82 368.27, 1012.91 368.57, 1011.83 372.28 C 1010.75 375.99, 1009.69 379.31, 1007.26 386.80 C 1004.82 394.30, 1002.70 399.57, 999.67 409.75 C 996.63 419.94, 994.59 426.27, 992.09 437.73 C 989.59 449.19, 988.38 455.77, 987.18 467.04 C 985.97 478.31, 985.50 484.39, 986.05 494.08 C 986.60 503.78, 987.24 508.50, 989.91 515.52 C 992.59 522.53, 994.74 525.50, 999.42 529.17 C 1004.09 532.85, 1007.38 533.86, 1013.28 533.88 C 1019.17 533.90, 1022.44 532.90, 1028.91 529.27 C 1035.37 525.65, 1039.62 522.27, 1045.62 515.76 C 1051.61 509.25, 1054.52 504.15, 1058.89 496.72 C 1063.25 489.30, 1065.21 484.63, 1067.45 478.62 C 1069.69 472.60, 1070.61 469.10, 1070.10 466.64 C 1069.60 464.18, 1066.93 463.78, 1064.93 466.33 C 1062.92 468.89, 1061.54 472.95, 1060.09 479.42 C 1058.63 485.89, 1057.62 490.84, 1057.66 498.69 C 1057.69 506.54, 1059.21 514.72, 1060.26 518.65 C 1061.30 522.58, 1062.73 522.34, 1062.88 518.35 C 1063.03 514.36, 1060.90 506.34, 1061.02 498.71 C 1061.13 491.07, 1062.07 486.33, 1063.46 480.18 C 1064.85 474.03, 1067.16 470.69, 1067.98 467.96 C 1068.80 465.24, 1068.20 464.63, 1067.55 466.55 C 1066.89 468.47, 1066.85 471.80, 1064.68 477.58 C 1062.51 483.36, 1060.88 488.16, 1056.70 495.46 C 1052.53 502.76, 1049.61 507.77, 1043.80 514.08 C 1037.99 520.40, 1033.75 523.59, 1027.64 527.03 C 1021.54 530.46, 1018.61 531.22, 1013.27 531.27 C 1007.93 531.31, 1005.20 530.54, 1000.93 527.23 C 996.65 523.93, 994.51 521.40, 991.91 514.75 C 989.31 508.09, 988.52 503.48, 987.92 493.97 C 987.33 484.47, 987.73 478.40, 988.92 467.23 C 990.12 456.06, 991.32 449.50, 993.89 438.13 C 996.47 426.77, 998.59 420.49, 1001.80 410.41 C 1005.00 400.32, 1007.28 395.19, 1009.91 387.70 C 1012.54 380.21, 1014.33 377.21, 1014.95 372.94 C 1015.58 368.68, 1015.13 367.03, 1013.02 366.39 C 1010.91 365.75, 1009.15 366.79, 1004.41 369.76 C 999.67 372.72, 996.37 376.26, 989.31 381.21 C 982.25 386.17, 977.12 389.77, 969.12 394.53 C 961.11 399.29, 956.30 401.71, 949.27 405.01 C 942.25 408.32, 938.52 409.56, 934.00 411.06 C 929.48 412.55, 927.95 412.54, 926.67 412.48 C 925.38 412.43, 926.22 412.27, 927.58 410.77 C 928.94 409.27, 929.96 407.46, 933.45 404.98 C 936.94 402.50, 939.91 400.51, 945.02 398.38 C 950.13 396.25, 953.58 394.85, 959.00 394.32 C 964.42 393.79, 967.88 393.70, 972.13 395.74 C 976.38 397.77, 978.48 399.52, 980.26 404.50 C 982.04 409.49, 982.47 413.33, 981.05 420.67 C 979.62 428.02, 977.89 433.15, 973.13 441.23 C 968.37 449.31, 964.58 454.21, 957.25 461.07 C 949.91 467.93, 944.90 471.54, 936.46 475.52 C 928.02 479.49, 923.17 480.86, 915.05 480.93 C 906.92 481.01, 902.46 479.95, 895.82 475.90 C 889.18 471.85, 885.80 468.57, 881.84 460.69 C 877.88 452.80, 876.64 447.13, 876.03 436.47 C 875.41 425.81, 876.10 419.08, 878.76 407.38 C 881.42 395.69, 883.82 389.07, 889.30 378.02 C 894.79 366.97, 898.77 361.15, 906.21 352.13 C 913.65 343.10, 918.50 339.08, 926.50 332.88 C 934.50 326.69, 938.95 324.50, 946.20 321.14 C 953.46 317.78, 957.03 316.88, 962.77 316.06 C 968.51 315.24, 971.07 316.42, 974.91 317.04 C 978.75 317.67, 979.71 318.59, 981.95 319.18 C 984.19 319.78, 985.01 320.30, 986.11 320.02 C 987.20 319.74, 987.89 318.96, 987.44 317.76" style="stroke:#03a9f4; fill:#03a9f4;"/></svg>