<svg width="23" height="22" viewBox="0 0 23 22" fill="none" xmlns="http://www.w3.org/2000/svg">
<g clip-path="url(#clip0_5_5701)">
<path d="M6.37675 5.66132C6.14759 5.07649 6.15675 4.40824 6.2585 3.79682C6.95901 4.00672 7.61691 4.33877 8.20184 4.77766C8.4585 4.97382 8.79492 5.03707 9.10842 4.94266C9.91286 4.70198 10.7483 4.5809 11.588 4.58332C12.4689 4.58332 13.3058 4.71166 14.0658 4.94174C14.3793 5.03707 14.7157 4.97291 14.9714 4.77674C15.5561 4.33795 16.2136 4.0059 16.9138 3.79591C17.0156 4.40732 17.0238 5.07557 16.7965 5.65949C16.659 6.01149 16.7278 6.41666 16.9872 6.70449C17.6508 7.44057 18.0047 8.28666 18.0047 9.16666C18.0047 11.1045 16.1988 13.0047 13.2985 13.5832C12.5725 13.728 12.2893 14.6419 12.8448 15.1653C13.2013 15.5008 13.4213 15.9738 13.4213 16.5V19.25C13.4213 19.4931 13.5179 19.7263 13.6898 19.8982C13.8617 20.0701 14.0949 20.1667 14.338 20.1667C14.5811 20.1667 14.8143 20.0701 14.9862 19.8982C15.1581 19.7263 15.2547 19.4931 15.2547 19.25V16.5C15.2547 15.9775 15.1447 15.4807 14.9485 15.0306C17.7141 14.0708 19.838 11.9102 19.838 9.16666C19.838 7.93191 19.3943 6.79707 18.6583 5.84649C18.8508 5.09482 18.8333 4.33766 18.76 3.75649C18.6949 3.23582 18.6042 2.55382 18.2375 2.14682C17.6921 1.54274 16.7892 1.89841 16.1475 2.11749C15.4592 2.35041 14.8043 2.67245 14.1996 3.07541C13.3462 2.85762 12.4687 2.74829 11.588 2.74999C10.6768 2.74999 9.79775 2.86457 8.97459 3.07632C8.36988 2.67336 7.71501 2.35131 7.02667 2.11841C6.385 1.89841 5.48117 1.54274 4.93575 2.14682C4.56175 2.56116 4.48384 3.18907 4.41692 3.72257L4.41234 3.75741C4.339 4.33949 4.3225 5.09757 4.515 5.85016C3.78167 6.79982 3.338 7.93282 3.338 9.16666C3.338 11.9093 5.46192 14.0708 8.2275 15.0306C8.02733 15.4883 7.92313 15.9821 7.92134 16.4817L7.76734 16.5128C7.11009 16.6036 6.68934 16.522 6.40334 16.401C5.70667 16.1058 5.34734 15.3624 4.90917 14.7941C4.636 14.4412 4.23817 14.0002 3.62767 13.7967C3.51343 13.7587 3.39282 13.7435 3.27272 13.7521C3.15262 13.7607 3.03538 13.7928 2.92771 13.8467C2.71024 13.9555 2.54491 14.1463 2.46809 14.377C2.39126 14.6077 2.40924 14.8595 2.51805 15.077C2.62687 15.2944 2.81762 15.4598 3.04834 15.5366C3.55984 15.7071 3.91367 16.5834 4.23817 16.9721C4.58009 17.3827 5.03475 17.8117 5.6865 18.0886C6.31167 18.3544 7.04592 18.4488 7.92134 18.3416V19.25C7.92134 19.4931 8.01791 19.7263 8.18982 19.8982C8.36173 20.0701 8.59489 20.1667 8.838 20.1667C9.08112 20.1667 9.31428 20.0701 9.48619 19.8982C9.65809 19.7263 9.75467 19.4931 9.75467 19.25V16.5C9.75467 15.9738 9.97467 15.5008 10.3313 15.1653C10.8877 14.641 10.6035 13.728 9.8775 13.5832C6.97625 13.0047 5.17134 11.1045 5.17134 9.16666C5.17134 8.28849 5.52425 7.44241 6.187 6.70632C6.44642 6.41849 6.51425 6.01332 6.37675 5.66132Z" fill="#0BB0D1"/>
</g>
<defs>
<clipPath id="clip0_5_5701">
<rect width="22" height="22" fill="white" transform="translate(0.587997 -7.62939e-06)"/>
</clipPath>
</defs>
</svg>
