<svg width="24" height="25" viewBox="0 0 24 25" fill="none" xmlns="http://www.w3.org/2000/svg">
<path d="M15.5 2.26384H8.6C8.2 2.26384 7.8 2.46384 7.5 2.76384C7.2 3.06384 7 3.46384 7 3.86384V16.6638C7 17.0638 7.2 17.4638 7.5 17.7638C7.8 18.0638 8.2 18.2638 8.6 18.2638H18.4C18.8 18.2638 19.2 18.0638 19.5 17.7638C19.8 17.4638 20 17.0638 20 16.6638V6.76384L15.5 2.26384Z" stroke="#0BB0D1" stroke-width="2" stroke-linecap="round" stroke-linejoin="round"/>
<path d="M3 7.86384V20.6638C3 21.0638 3.2 21.4638 3.5 21.7638C3.8 22.0638 4.2 22.2638 4.6 22.2638H14.4M15 2.26384V7.26384H20" stroke="#0BB0D1" stroke-width="2" stroke-linecap="round" stroke-linejoin="round"/>
</svg>
